PathFileType	4	(X/Y/Z)	Patient4_TMGait_0pt5_01_right_02.trc.trc
DataRate	CameraRate	NumFrames	NumMarkers	Units	OrigDataRate	OrigDataStartFrame	OrigNumFrames
76.086956521739	76.086956521739	6	33	mm	76.086956521739	18	       141
Frame#	Time	L.ASIS			Sacral			L.Shoulder			Chest			R.Shoulder			Neck			R.ASIS			R.Thigh.Superior			R.Thigh.Lateral			R.Thigh.Inferior			R.Patella			L.Thigh.Superior			L.Thigh.Lateral			L.Thigh.Inferior			L.Patella			L.Shank.Superior			L.Shank.Lateral			L.Shank.Inferior			R.Shank.Superior			R.Shank.Lateral			R.Shank.Inferior			R.Heel			R.Midfoot.Superior			R.Midfoot.Lateral			R.Toe			L.Heel			L.Midfoot.Lateral			L.Midfoot.Superior			L.Toe			L.Elbow			L.Wrist			R.Elbow			R.Wrist			
		X1	Y1	Z1	X2	Y2	Z2	X3	Y3	Z3	X4	Y4	Z4	X5	Y5	Z5	X6	Y6	Z6	X7	Y7	Z7	X8	Y8	Z8	X9	Y9	Z9	X10	Y10	Z10	X11	Y11	Z11	X12	Y12	Z12	X13	Y13	Z13	X14	Y14	Z14	X15	Y15	Z15	X16	Y16	Z16	X17	Y17	Z17	X18	Y18	Z18	X19	Y19	Z19	X20	Y20	Z20	X21	Y21	Z21	X22	Y22	Z22	X23	Y23	Z23	X24	Y24	Z24	X25	Y25	Z25	X26	Y26	Z26	X27	Y27	Z27	X28	Y28	Z28	X29	Y29	Z29	X30	Y30	Z30	X31	Y31	Z31	X32	Y32	Z32	X33	Y33	Z33	

18	2.133428571429	771.597358287235	960.034875887800	301.527901446241	539.969863555224	998.377986056096	428.899405711422	725.812296249059	1430.456983528434	265.134176533336	802.305514856678	1365.862585857487	442.408408572035	689.660756437642	1439.704574822335	599.820342944427	698.732499173198	1493.650572053385	413.041482304690	751.297224710826	941.333300618107	576.781467323966	823.422581866385	759.370784460465	555.656492134946	766.859743933316	639.917033243261	619.933403068003	859.167450748736	598.869583495475	545.458082774375	889.407051256160	519.052827669083	558.962208887107	783.061297694085	735.920903048986	330.450413570076	674.180813009183	635.362102704378	267.349974381155	735.674680179786	546.670219248915	335.404332313354	722.486619610332	478.489653593411	346.153939647060	692.213686754597	411.061160232271	339.420256853726	594.391515508798	301.483447107290	291.519800876124	637.230541187061	189.996775950597	368.268930749691	879.953049672413	434.678890869276	567.652055551722	835.945523363341	317.272281931886	629.119154394761	913.760294255142	237.762620480643	579.260525089761	836.407723113972	45.222485986730	547.053765137819	992.601089735031	130.293645408848	594.034930929416	917.906779077311	48.900662430614	623.841435242360	1117.166751664822	101.094702262165	624.320795282653	502.092824147642	38.554809045489	420.017363295427	573.176808275731	34.641873443322	336.844765477959	657.682251978927	94.978062260617	359.872907285289	784.741794068227	42.980535646763	328.439375161931	801.743345176181	1103.462811828640	111.652891625452	1043.054669274672	1013.021784929402	146.583857130490	551.666566096621	1124.015317034447	703.469803006747	540.291215387361	864.948865642169	731.094782896980	
19	2.146571428571	772.686207590791	959.347294029694	303.190119073554	540.895414442462	997.273817447268	430.568917930987	726.150691021215	1429.290465679780	266.529679129142	802.330953098441	1365.265259897707	444.091987426459	689.096767338860	1439.073488593981	601.129399159293	698.544476599449	1492.722114285122	414.214976879037	752.481227068136	940.320985809907	578.542560384148	825.176234096901	758.580534324395	556.657204358340	768.623343420611	638.638170318501	620.507025407798	860.629485149238	597.854698759648	545.882024878619	890.498231156598	517.777329623766	559.115653208198	782.473830551140	734.723654642575	331.574581771443	672.691937174525	634.995708069363	268.375252643999	733.447328769951	545.725392770935	336.300507110459	719.719523687571	477.388681687452	346.912342374506	688.777580753906	410.274873093908	340.056533327261	589.842315762669	301.706774195376	291.920263654153	631.666940289902	189.653152871985	368.395548154254	880.463288313995	432.769048309432	567.654492961786	835.526587717072	315.821757788506	629.146030545564	912.064397052909	235.612747681263	578.872523534424	832.090617034789	45.026326046774	546.921069764449	989.804236295787	126.934693195945	593.014985291756	913.939164833055	47.228247778270	623.320670121965	1113.942135174802	95.442061026239	622.633566827255	495.488335437354	38.655997911640	419.933711951346	566.575895224926	34.670868820382	336.822831100693	651.141257716507	94.948643347066	359.863225045851	778.150556326161	42.747662937430	328.437805378680	802.635654819470	1101.810802920140	114.275115833031	1044.811275753353	1013.867831600401	149.199642121543	549.809718567755	1124.069846023163	704.130724733469	539.795740013317	864.812433313568	731.560785844783	
20	2.159714285714	773.742297820057	958.574395944901	304.895156889796	541.971728540782	996.065177067499	432.569406274470	726.353664528265	1428.075139333368	268.075830186563	802.374972488838	1364.650508078753	445.881129401798	688.556683841191	1438.334338546064	602.598449813625	698.297596173476	1491.722501203424	415.579708982099	753.984664644116	939.233520205393	580.347101842540	827.413340906259	757.796295520293	557.551695350185	770.934814096546	637.364750434746	621.014847902092	862.600430857062	596.871063523243	546.210183347866	891.967400330181	516.255517707714	559.195818851467	782.106952445408	733.501380040612	332.720886762406	671.434739036531	634.556944638017	269.525989816296	731.544391273990	544.719797482029	337.269619434613	717.276936647793	476.172465935465	347.792139918939	685.618681766024	409.382039902586	340.793564047248	585.491559173997	301.927492701920	292.416992595810	626.200391516740	189.266711843117	368.570662144936	880.976510520361	430.450186080369	567.568361198763	834.498686469240	314.193998658247	629.080963477207	909.233594784314	232.880454844481	578.329105657160	825.545159036665	44.737515412244	546.727976744639	985.088951405847	122.818539632825	591.807536879147	907.727006432242	45.268012718946	622.777280347506	1108.694057348917	88.576849161606	620.841117353848	488.881353471336	38.749301067374	419.828179898657	559.988498666024	34.692849676774	336.798081341037	644.608116123487	94.924697676193	359.860857911577	771.575826920722	42.497385060225	328.434539806570	803.255960703461	1099.994935893194	117.128301275905	1046.045165628835	1013.720542079222	151.976590107451	548.637718572047	1123.677797641779	704.973107268555	540.488364349289	864.193766963182	732.147714222208	
21	2.172857142857	774.772078647103	957.730358751828	306.646870153885	543.202075759886	994.788800376812	434.894650383406	726.421709395227	1426.832796294560	269.779010354794	802.460152465861	1364.031766453619	447.773038601864	688.083345196329	1437.504588890874	604.232571778454	698.018442225990	1490.674815851414	417.151493706512	755.800143659224	938.085262741789	582.183346641758	830.024985881581	756.963528527303	558.377017504362	773.588454682134	636.087554858204	621.471382665759	864.911472661950	595.892416953663	546.469578307696	893.631597583310	514.519398276798	559.171522247234	781.958136605607	732.266148395296	333.882006646483	670.382497667108	634.063874072355	270.806008315595	729.942141505231	543.666523927884	338.306607274814	715.143983190208	474.852937786443	348.781750170879	682.713667910935	408.400669418044	341.625086070963	581.310128047356	302.164698152220	293.014087491859	620.820591374175	188.854604123145	368.790331119760	881.437531265269	427.825135517126	567.406962637984	833.012619699212	312.420312017322	628.953091436531	905.572310868864	229.737276246163	577.658494177773	817.432650376126	44.348851881771	546.510403364050	978.945691461075	118.271784150302	590.451137009421	899.924671965175	43.184522851797	622.249753438869	1101.975287953232	81.094424055689	618.989176905994	482.268685445455	38.851710818181	419.696749123693	553.416960890909	34.710470972903	336.768550205965	638.089715652410	94.908927993642	359.859115526222	765.023349929686	42.227087019773	328.425394769753	803.602771648945	1098.051929931994	120.184797342689	1046.757229611751	1012.582913793142	154.886522856539	548.188813186510	1122.868126458485	706.060559121099	542.357691021219	863.133365771386	732.869283529781	
22	2.186000000000	775.790571572310	956.846457717652	308.454075164585	544.577913071231	993.495682233726	437.523972944791	726.360686660027	1425.599316952612	271.646844417744	802.609553511844	1363.433288477416	449.764602366917	687.729525937581	1436.618031563068	606.040651347303	697.739779986007	1489.617082485885	418.944466384087	757.902836269896	936.909863679349	584.043331329377	832.900241218549	756.063856545594	559.164928983045	776.396654423569	634.825790055803	621.892395916883	867.402145776170	594.924254489222	546.680377309487	895.331630083552	512.636218543022	559.029350139672	782.015491417017	731.041646716906	335.062274295593	669.512333567897	633.541203318941	272.221186184787	728.625121031826	542.588445845632	339.412602690278	713.320977930964	473.450570462061	349.865330955887	680.046628743447	407.358018327043	342.543623764490	577.274666041286	302.448965432763	293.716350429024	615.523412347656	188.443402689493	369.049626374766	881.809380519311	425.033238515166	567.195544944689	831.232835440370	310.571208296392	628.796273625422	901.397288053748	226.394381353186	576.900932783347	808.421952408971	43.890414788210	546.295924212124	971.879417833805	113.655541838580	589.002759984515	891.190212195622	41.159897330966	621.771414175263	1094.344520759112	73.603662653653	617.150044321764	475.649813662842	38.997023812479	419.537322221276	546.864293156147	34.733336049557	336.732791498319	631.599634391462	94.905312956754	359.848703063766	758.499356441407	41.934503722104	328.406034666911	803.669432489293	1096.026393288439	123.423620657735	1046.932869729144	1010.466801295367	157.889344532397	548.501954308991	1121.690288700735	707.450847102395	545.384054056313	861.692444746956	733.741249264304	
23	2.199142857143	776.815098558022	955.971314301795	310.328268552587	546.078722817271	992.248958150061	440.423189301089	726.183420680016	1424.426032364343	273.687499859775	802.844734654936	1362.890126143008	451.852567826445	687.553706494098	1435.724802139018	608.035441130952	697.498422726383	1488.601477655083	420.969336603126	760.250730245867	935.759478147773	585.924385349022	835.932358603694	755.118939250382	559.938702281926	779.209028998285	633.626189401663	622.296710596517	869.934311423844	594.001862514198	546.858660007532	896.946086737816	510.700293366184	558.782374155763	782.261112539879	729.865391072361	336.277468335153	668.815819560643	633.017601615163	273.777638143302	727.600519397825	541.517393976658	340.592756435057	711.837572228285	471.992249571959	351.020162579065	677.622057684916	406.287544790591	343.538870834447	573.379330666145	302.822441074646	294.527878032362	610.318014493444	188.068831193724	369.341679969714	882.073432836976	422.232774779886	566.970555895308	829.315202923213	308.744007951584	628.648177717598	896.999512328369	223.072265084614	576.106667589789	799.114548768858	43.411209945994	546.103937196293	964.353227370821	109.317168738155	587.533125976952	882.113501282220	39.357509985902	621.367684851498	1086.306053960423	66.650125798279	615.413511954802	469.029851978499	39.240630199458	419.350145397574	540.335392697804	34.781320151469	336.690161361682	625.160851331605	94.919451305896	359.817423084178	752.010428838475	41.617242946566	328.372645478998	803.442964423723	1093.972311006405	126.832298287018	1046.539942781647	1007.394792232084	160.934563537676	549.612029608735	1120.212495050484	709.189849739446	549.541337261878	859.952222419446	734.782772171142	
